<svg version="1.1" id="Layer_1" xmlns="http://www.w3.org/2000/svg" xmlns:xlink="http://www.w3.org/1999/xlink" x="0px" y="0px"
	 width="100%" viewBox="0 0 1024 1024" enable-background="new 0 0 1024 1024" xml:space="preserve">
<path fill="#47704C" opacity="1.000000" stroke="none" 
	d="
M646.000000,1025.000000 
	C430.666656,1025.000000 215.833328,1025.000000 1.000000,1025.000000 
	C1.000000,683.666687 1.000000,342.333344 1.000000,1.000000 
	C342.333344,1.000000 683.666687,1.000000 1025.000000,1.000000 
	C1025.000000,342.333344 1025.000000,683.666687 1025.000000,1025.000000 
	C898.833313,1025.000000 772.666687,1025.000000 646.000000,1025.000000 
M355.176758,708.694763 
	C356.117523,709.130127 357.058258,709.565552 358.192352,710.674988 
	C359.245911,711.814209 360.118561,713.238159 361.384735,714.042786 
	C366.567139,717.336243 371.744537,720.680786 377.181274,723.512024 
	C379.834717,724.893799 383.053802,725.189392 386.259460,726.684326 
	C388.495514,727.464783 390.680267,728.484375 392.977997,728.977295 
	C398.203766,730.098511 403.481110,730.982605 408.744629,731.923279 
	C415.721863,733.170227 422.920807,734.570190 428.894196,729.445007 
	C433.590088,725.415955 437.695953,720.688477 441.969818,716.182007 
	C444.765350,713.234314 447.392792,710.127197 450.790619,707.016479 
	C451.700531,706.347351 452.712280,705.780701 453.504639,704.993347 
	C461.587982,696.960632 469.635498,688.891846 477.693359,680.833435 
	C482.929871,675.596558 488.260620,670.448975 493.347137,665.070312 
	C494.892212,663.436401 495.763733,661.165588 496.976288,659.131836 
	C495.895111,658.520508 495.479858,658.082092 495.059357,658.077026 
	C470.827515,657.786316 446.594818,657.566528 422.363525,657.239502 
	C418.210083,657.183411 413.873627,657.346741 409.958374,656.229248 
	C404.624023,654.706665 403.871399,649.572998 408.046600,645.516174 
	C411.110901,642.538757 414.311066,639.645142 417.746613,637.116272 
	C429.304779,628.608398 441.085144,620.401672 452.615723,611.857361 
	C473.680145,596.248291 494.679596,580.549866 515.582397,564.725220 
	C520.326904,561.133301 525.259338,557.422058 528.903748,552.815247 
	C538.765625,540.348877 541.159851,525.876404 537.950562,510.497986 
	C535.681335,499.623993 531.332825,489.769653 522.227051,482.706085 
	C512.022217,474.789886 501.829346,466.857117 491.552185,459.035431 
	C472.572937,444.590698 453.497192,430.272552 434.541016,415.797729 
	C426.211761,409.437531 417.723267,403.211884 409.984100,396.180023 
	C405.187195,391.821564 403.352203,385.539764 406.131256,379.096710 
	C408.512482,373.576111 413.658295,370.634277 419.144653,370.226349 
	C428.702545,369.515747 438.351044,370.023438 447.961578,370.022034 
	C456.506683,370.020782 465.051758,370.026733 473.596863,370.019958 
	C480.133392,370.014801 486.669983,369.975800 493.206482,369.985199 
	C507.160095,370.005219 521.113708,370.061829 535.067322,370.075806 
	C551.563599,370.092346 568.059814,370.079681 584.979919,370.079681 
	C584.979919,379.338745 584.433838,388.226227 585.223328,396.993439 
	C585.587097,401.033295 587.539429,406.157379 590.552063,408.497559 
	C599.035583,415.087341 607.690063,415.267303 615.469482,407.010345 
	C623.347961,398.648285 630.987000,390.060272 638.887817,381.719849 
	C648.355347,371.725647 658.080933,361.975433 667.520203,351.955048 
	C674.407593,344.643677 676.755310,331.058014 670.747070,322.502289 
	C666.849609,316.952301 662.652344,311.530487 657.995422,306.613861 
	C649.070984,297.191772 639.668335,288.224548 630.572021,278.962677 
	C625.013428,273.302917 619.922424,267.158905 614.123108,261.768524 
	C609.532227,257.501343 604.106873,253.968338 597.316956,257.040009 
	C590.460876,260.141602 584.993835,264.538757 584.937622,272.986633 
	C584.895325,279.347748 585.163208,285.722809 584.788269,292.061829 
	C584.688293,293.752625 582.963623,296.460907 581.585083,296.742004 
	C578.205017,297.431274 574.591980,296.983551 571.072632,296.983521 
	C524.573975,296.982819 478.075256,296.935638 431.576813,297.023315 
	C423.980652,297.037628 416.357056,297.341370 408.797058,298.052460 
	C398.404938,299.029938 387.999847,300.877136 379.103577,306.578430 
	C370.130707,312.328766 361.129028,318.381409 353.432678,325.667175 
	C347.195068,331.572021 341.570007,338.633453 338.874847,347.304901 
	C336.290955,355.618317 333.240387,363.808289 331.110382,372.233398 
	C329.747192,377.625214 329.049316,383.364136 329.214874,388.912811 
	C329.377838,394.374023 330.770203,399.847534 332.042480,405.216278 
	C334.508453,415.621887 337.387329,425.904633 344.989960,434.798523 
	C348.348663,439.062683 351.148468,443.974091 355.181793,447.457031 
	C363.723938,454.833649 372.837311,461.561035 381.863495,468.359406 
	C386.037384,471.503082 390.555969,474.189148 394.991791,477.804352 
	C397.198364,479.581573 399.307068,481.500275 401.631195,483.107513 
	C407.017761,486.832642 412.508545,490.407166 417.996582,494.767334 
	C423.312592,498.532837 428.628571,502.298340 434.189545,506.699005 
	C437.779541,509.146423 441.369537,511.593872 444.996735,514.761658 
	C446.506226,516.185669 448.086761,517.542786 449.507141,519.050720 
	C451.281708,520.934692 452.267609,522.693054 449.109985,524.500244 
	C447.150940,525.621521 445.706940,527.603516 443.866638,528.978149 
	C434.452637,536.010071 424.967346,542.946472 415.540405,549.961182 
	C403.022308,559.276062 390.673645,568.825684 377.994049,577.914307 
	C366.286407,586.306213 353.792664,594.129578 345.311951,605.784241 
	C333.946960,621.402527 327.371155,638.787842 330.077209,659.110779 
	C331.677277,671.127380 335.166504,682.093811 341.195160,692.302429 
	C343.752686,696.633179 347.632935,700.182800 350.982239,704.779968 
	C352.293945,705.883850 353.605682,706.987732 355.176758,708.694763 
M592.194092,534.716248 
	C599.537964,541.355957 608.548828,541.674744 617.354858,536.283447 
	C623.698242,532.399780 626.893982,526.115356 630.878967,520.399963 
	C632.217590,518.480042 633.019958,516.186218 634.708252,513.814148 
	C635.175110,513.340942 635.705078,512.914917 636.099670,512.387634 
	C649.897339,493.950226 663.257568,475.165222 677.593689,457.156891 
	C690.794861,440.574188 705.022156,424.806976 718.844666,408.721100 
	C722.416016,404.564972 723.170166,398.250519 720.298157,394.778046 
	C717.603210,391.519714 711.763123,391.458008 706.937439,394.438629 
	C685.894836,407.435883 666.856567,423.087891 648.313843,439.308105 
	C636.108215,449.985016 624.604614,461.466949 612.841309,472.645844 
	C607.058228,478.141632 606.297974,478.285400 600.090942,473.545441 
	C598.006104,471.953430 595.974304,470.272766 594.056580,468.484283 
	C585.856201,460.836487 576.985168,453.994934 566.479614,450.056305 
	C562.478821,448.556427 556.848633,448.162445 553.105652,449.831360 
	C542.480835,454.568787 541.924377,464.971832 547.606079,473.121033 
	C556.751343,486.237976 565.898621,499.353699 575.111206,512.423279 
	C576.531128,514.437622 578.303955,516.203186 579.962769,518.844604 
	C582.337952,525.190491 585.681885,530.773438 592.194092,534.716248 
M572.980957,598.700500 
	C576.709229,601.396484 580.437500,604.092468 585.051392,607.028992 
	C586.440430,608.234314 587.829529,609.439636 589.093018,611.055908 
	C590.156494,612.282166 591.043884,613.742554 592.312134,614.696594 
	C600.344727,620.739319 606.506226,627.513428 606.098328,638.688599 
	C605.686890,649.961853 598.310791,657.960754 587.042480,657.966919 
	C568.210388,657.977234 549.378357,657.963379 530.546265,657.974854 
	C525.969421,657.977600 522.069824,659.114136 518.866821,662.927063 
	C514.616211,667.987183 509.830383,672.604553 505.187897,677.326965 
	C498.186005,684.449402 491.177734,691.568176 484.047272,698.561035 
	C474.626007,707.800476 465.030396,716.862793 455.667786,726.160400 
	C454.601074,727.219666 453.967346,729.411621 454.241089,730.870483 
	C454.413696,731.790344 456.619507,732.859802 457.963562,732.932495 
	C462.636200,733.185303 467.334534,733.151733 472.016205,733.006104 
	C479.452850,732.774719 486.882080,732.306213 494.318573,732.067810 
	C496.531006,731.996887 498.758209,732.510681 500.977203,732.498657 
	C510.845551,732.445190 520.713318,732.218567 530.581421,732.214111 
	C536.687012,732.211365 542.804016,732.795044 548.895081,732.565063 
	C554.912537,732.337769 560.894043,731.087280 566.909729,730.909607 
	C571.464478,730.775085 576.065430,732.094116 580.615234,731.928162 
	C588.819824,731.629028 597.022644,730.894165 605.187683,729.992798 
	C617.285583,728.657288 627.915039,723.093140 637.718994,716.534058 
	C647.822144,709.774963 656.313354,701.108093 663.077026,690.665710 
	C672.431641,676.223145 677.770020,660.498596 678.839539,643.572937 
	C679.581970,631.824707 678.122498,620.148438 674.260254,608.687012 
	C670.687195,598.083862 666.573608,587.830017 659.540710,579.239868 
	C652.897827,571.125977 645.118408,563.946167 637.897827,556.299866 
	C635.023743,553.256409 632.361328,553.307434 628.760193,555.484009 
	C612.755554,565.157532 595.516479,564.135193 581.083252,553.529541 
	C577.654236,551.009827 574.454712,548.180115 571.077820,545.586426 
	C567.718384,543.006226 565.612305,543.647705 564.431763,547.046265 
	C561.052002,556.775330 557.115295,566.189453 548.653503,572.865601 
	C546.079407,574.896545 546.312622,579.174255 548.723450,580.977722 
	C553.957153,584.892883 559.055237,588.992676 564.353333,592.816833 
	C567.085876,594.789246 570.127747,596.333069 573.027649,597.973450 
	C573.027649,597.973450 572.930603,597.975342 572.980957,598.700500 
z"/>
<path fill="#F7892E" opacity="1.000000" stroke="none" 
	d="
M589.218567,610.644958 
	C587.829529,609.439636 586.440430,608.234314 584.512085,606.589966 
	C580.291992,603.425781 576.611328,600.700562 572.930603,597.975342 
	C572.930603,597.975342 573.027649,597.973450 573.148926,597.680908 
	C569.470093,594.128479 565.670044,590.868652 561.960999,587.229126 
	C565.072327,581.140442 568.419128,575.574097 570.997192,569.671936 
	C572.695862,565.783264 574.116760,565.284363 577.903015,567.321472 
	C596.874451,577.528625 615.322449,577.051697 632.923706,563.842224 
	C634.623962,562.566223 636.706787,561.799866 638.894043,560.935181 
	C654.178772,573.332458 665.661011,588.078735 671.148682,606.998291 
	C669.980042,608.927002 668.938110,610.606262 668.369019,612.432800 
	C665.592773,621.341980 662.864136,630.165466 656.273682,637.308228 
	C644.439575,650.134155 629.421204,656.724915 612.677124,659.563477 
	C606.793152,660.560974 600.586731,659.656616 594.790405,659.390991 
	C604.118164,654.698608 608.738708,647.395752 608.556702,637.312134 
	C608.360596,626.451477 599.669189,614.663513 589.218567,610.644958 
z"/>
<path fill="#E5F1ED" opacity="1.000000" stroke="none" 
	d="
M344.910126,434.082642 
	C337.387329,425.904633 334.508453,415.621887 332.042480,405.216278 
	C330.770203,399.847534 329.377838,394.374023 329.214874,388.912811 
	C329.049316,383.364136 329.747192,377.625214 331.110382,372.233398 
	C333.240387,363.808289 336.290955,355.618317 338.874847,347.304901 
	C341.570007,338.633453 347.195068,331.572021 353.432678,325.667175 
	C361.129028,318.381409 370.130707,312.328766 379.103577,306.578430 
	C387.999847,300.877136 398.404938,299.029938 408.797058,298.052460 
	C416.357056,297.341370 423.980652,297.037628 431.576813,297.023315 
	C478.075256,296.935638 524.573975,296.982819 571.072632,296.983521 
	C574.591980,296.983551 578.205017,297.431274 581.585083,296.742004 
	C582.963623,296.460907 584.688293,293.752625 584.788269,292.061829 
	C585.163208,285.722809 584.895325,279.347748 584.937622,272.986633 
	C584.993835,264.538757 590.460876,260.141602 597.316956,257.040009 
	C604.106873,253.968338 609.532227,257.501343 614.123108,261.768524 
	C619.922424,267.158905 625.013428,273.302917 630.572021,278.962677 
	C639.668335,288.224548 649.070984,297.191772 657.995422,306.613861 
	C662.652344,311.530487 666.849609,316.952301 670.747070,322.502289 
	C676.755310,331.058014 674.407593,344.643677 667.520203,351.955048 
	C658.080933,361.975433 648.355347,371.725647 638.887817,381.719849 
	C630.987000,390.060272 623.347961,398.648285 615.469482,407.010345 
	C607.690063,415.267303 599.035583,415.087341 590.552063,408.497559 
	C587.539429,406.157379 585.587097,401.033295 585.223328,396.993439 
	C584.433838,388.226227 584.979919,379.338745 584.979919,370.079681 
	C568.059814,370.079681 551.563599,370.092346 535.067322,370.075806 
	C521.113708,370.061829 507.160095,370.005219 493.206482,369.985199 
	C486.669983,369.975800 480.133392,370.014801 473.596863,370.019958 
	C465.051758,370.026733 456.506683,370.020782 447.961578,370.022034 
	C438.351044,370.023438 428.702545,369.515747 419.144653,370.226349 
	C413.658295,370.634277 408.512482,373.576111 406.131256,379.096710 
	C403.352203,385.539764 405.187195,391.821564 409.984100,396.180023 
	C417.723267,403.211884 426.211761,409.437531 434.541016,415.797729 
	C453.497192,430.272552 472.572937,444.590698 491.552185,459.035431 
	C501.829346,466.857117 512.022217,474.789886 522.227051,482.706085 
	C531.332825,489.769653 535.681335,499.623993 537.950562,510.497986 
	C541.159851,525.876404 538.765625,540.348877 528.903748,552.815247 
	C525.259338,557.422058 520.326904,561.133301 515.582397,564.725220 
	C494.679596,580.549866 473.680145,596.248291 452.615723,611.857361 
	C441.085144,620.401672 429.304779,628.608398 417.746613,637.116272 
	C414.311066,639.645142 411.110901,642.538757 408.046600,645.516174 
	C403.871399,649.572998 404.624023,654.706665 409.958374,656.229248 
	C413.873627,657.346741 418.210083,657.183411 422.363525,657.239502 
	C446.594818,657.566528 470.827515,657.786316 495.059357,658.077026 
	C495.479858,658.082092 495.895111,658.520508 496.976288,659.131836 
	C495.763733,661.165588 494.892212,663.436401 493.347137,665.070312 
	C488.260620,670.448975 482.929871,675.596558 477.693359,680.833435 
	C469.635498,688.891846 461.587982,696.960632 453.504639,704.993347 
	C452.712280,705.780701 451.700531,706.347351 450.217896,706.846985 
	C449.494904,706.539551 449.344696,706.401672 449.381958,705.988342 
	C463.881195,691.342590 478.192963,676.972351 492.504700,662.602112 
	C492.186951,662.074219 491.869232,661.546326 491.551483,661.018433 
	C489.285767,661.018433 487.020081,661.017761 484.754364,661.018616 
	C462.796722,661.026917 440.837952,660.908203 418.881897,661.098572 
	C408.206299,661.191101 402.380157,658.051270 403.378784,645.953247 
	C404.188568,644.986816 404.706665,644.142700 405.523621,643.126648 
	C406.958618,642.298584 408.171875,641.746826 409.219696,640.971497 
	C446.233154,613.580566 483.265930,586.215515 520.199097,558.716675 
	C526.853027,553.762390 531.738098,547.285583 534.404419,538.887207 
	C540.797302,518.592896 537.763733,499.917023 522.392334,485.735138 
	C508.765259,473.162537 492.926758,462.986816 477.867188,451.490295 
	C468.813080,444.503418 459.951660,437.785217 451.100433,431.053650 
	C437.458344,420.678497 423.410950,410.784393 410.309387,399.766022 
	C398.858795,390.136139 400.731842,376.827728 413.966034,369.069885 
	C421.146423,368.774597 427.941956,368.137024 434.738831,368.121948 
	C483.379395,368.014313 532.020386,368.082886 580.660706,367.932312 
	C585.300232,367.917908 587.337891,369.064270 587.011475,374.080872 
	C586.601196,380.385284 586.801575,386.734558 586.863403,393.063232 
	C586.932800,400.164978 588.923767,406.193878 596.193176,409.217041 
	C603.661987,412.323090 609.537720,409.465454 614.622192,404.230194 
	C630.862061,387.508575 647.094971,370.778473 663.160767,353.890045 
	C674.428711,342.045074 675.074524,329.445374 664.120789,317.437714 
	C647.740967,299.481934 630.741638,282.088593 613.883911,264.573303 
	C609.313843,259.824951 603.713257,257.587555 597.108337,260.156006 
	C590.012878,262.915283 587.014404,268.426239 586.997009,275.811371 
	C586.982056,282.141357 586.813232,288.475983 587.005859,294.799622 
	C587.123657,298.668488 585.672974,300.116119 581.783569,300.111267 
	C533.146118,300.050385 484.508270,300.008026 435.871185,300.163513 
	C424.566162,300.199615 413.002686,299.623627 402.010895,301.712189 
	C373.856171,307.061768 353.188446,323.123169 340.364655,348.957794 
	C332.398956,365.005432 330.348938,381.902527 332.977783,399.504486 
	C334.803528,411.729156 339.620117,422.816528 345.480774,433.609314 
	C345.290527,433.767059 344.910126,434.082642 344.910126,434.082642 
z"/>
<path fill="#F1E9DC" opacity="1.000000" stroke="none" 
	d="
M561.869995,587.608826 
	C565.670044,590.868652 569.470093,594.128479 573.150024,597.729431 
	C570.127747,596.333069 567.085876,594.789246 564.353333,592.816833 
	C559.055237,588.992676 553.957153,584.892883 548.723450,580.977722 
	C546.312622,579.174255 546.079407,574.896545 548.653503,572.865601 
	C557.115295,566.189453 561.052002,556.775330 564.431763,547.046265 
	C565.612305,543.647705 567.718384,543.006226 571.077820,545.586426 
	C574.454712,548.180115 577.654236,551.009827 581.083252,553.529541 
	C595.516479,564.135193 612.755554,565.157532 628.760193,555.484009 
	C632.361328,553.307434 635.023743,553.256409 637.897827,556.299866 
	C645.118408,563.946167 652.897827,571.125977 659.540710,579.239868 
	C666.573608,587.830017 670.687195,598.083862 674.260254,608.687012 
	C678.122498,620.148438 679.581970,631.824707 678.839539,643.572937 
	C677.770020,660.498596 672.431641,676.223145 663.077026,690.665710 
	C656.313354,701.108093 647.822144,709.774963 637.718994,716.534058 
	C627.915039,723.093140 617.285583,728.657288 605.187683,729.992798 
	C597.022644,730.894165 588.819824,731.629028 580.615234,731.928162 
	C576.065430,732.094116 571.464478,730.775085 566.909729,730.909607 
	C560.894043,731.087280 554.912537,732.337769 548.895081,732.565063 
	C542.804016,732.795044 536.687012,732.211365 530.581421,732.214111 
	C520.713318,732.218567 510.845551,732.445190 500.977203,732.498657 
	C498.758209,732.510681 496.531006,731.996887 494.318573,732.067810 
	C486.882080,732.306213 479.452850,732.774719 472.016205,733.006104 
	C467.334534,733.151733 462.636200,733.185303 457.963562,732.932495 
	C456.619507,732.859802 454.413696,731.790344 454.241089,730.870483 
	C453.967346,729.411621 454.601074,727.219666 455.667786,726.160400 
	C465.030396,716.862793 474.626007,707.800476 484.047272,698.561035 
	C491.177734,691.568176 498.186005,684.449402 505.187897,677.326965 
	C509.830383,672.604553 514.616211,667.987183 518.866821,662.927063 
	C522.069824,659.114136 525.969421,657.977600 530.546265,657.974854 
	C549.378357,657.963379 568.210388,657.977234 587.042480,657.966919 
	C598.310791,657.960754 605.686890,649.961853 606.098328,638.688599 
	C606.506226,627.513428 600.344727,620.739319 592.312134,614.696594 
	C591.043884,613.742554 590.156494,612.282166 589.155762,610.850464 
	C599.669189,614.663513 608.360596,626.451477 608.556702,637.312134 
	C608.738708,647.395752 604.118164,654.698608 594.408508,659.481567 
	C590.481567,660.228394 587.201660,661.002197 583.916809,661.024048 
	C565.934875,661.143860 547.949158,660.929077 529.971680,661.235840 
	C527.205322,661.283020 523.826111,662.772766 521.830078,664.721680 
	C505.516876,680.650085 489.455109,696.836304 473.338776,712.965942 
	C468.213226,718.095703 463.153595,723.291382 457.038452,729.497498 
	C460.135559,729.855408 461.691650,730.190735 463.248108,730.192322 
	C503.869965,730.234497 544.492004,730.187561 585.113708,730.279663 
	C603.769226,730.321960 620.806213,725.515808 636.356567,714.972900 
	C672.024414,690.790894 685.036194,645.748596 671.493286,606.816650 
	C665.661011,588.078735 654.178772,573.332458 638.683350,560.625366 
	C635.045837,556.328064 631.905090,556.407654 627.523193,558.865295 
	C609.906372,568.745911 593.119446,566.529602 577.420898,554.256592 
	C574.362427,551.865479 571.464722,549.268799 569.417908,547.545715 
	C563.134949,556.906189 556.983826,565.868713 551.142639,575.028931 
	C550.417419,576.166260 550.682495,579.072632 551.615356,579.922119 
	C554.759460,582.785339 558.411926,585.090332 561.869995,587.608826 
z"/>
<path fill="#F1E9DC" opacity="1.000000" stroke="none" 
	d="
M579.913513,518.083801 
	C578.303955,516.203186 576.531128,514.437622 575.111206,512.423279 
	C565.898621,499.353699 556.751343,486.237976 547.606079,473.121033 
	C541.924377,464.971832 542.480835,454.568787 553.105652,449.831360 
	C556.848633,448.162445 562.478821,448.556427 566.479614,450.056305 
	C576.985168,453.994934 585.856201,460.836487 594.056580,468.484283 
	C595.974304,470.272766 598.006104,471.953430 600.090942,473.545441 
	C606.297974,478.285400 607.058228,478.141632 612.841309,472.645844 
	C624.604614,461.466949 636.108215,449.985016 648.313843,439.308105 
	C666.856567,423.087891 685.894836,407.435883 706.937439,394.438629 
	C711.763123,391.458008 717.603210,391.519714 720.298157,394.778046 
	C723.170166,398.250519 722.416016,404.564972 718.844666,408.721100 
	C705.022156,424.806976 690.794861,440.574188 677.593689,457.156891 
	C663.257568,475.165222 649.897339,493.950226 636.099670,512.387634 
	C635.705078,512.914917 635.175110,513.340942 634.246094,513.812622 
	C633.783936,513.811096 633.500183,513.559143 633.575317,513.219971 
	C634.436401,511.614044 635.151978,510.296753 636.019104,509.088226 
	C647.051208,493.711426 658.105103,478.350220 669.439575,462.831268 
	C674.464539,456.893524 679.086243,451.008575 683.966064,445.346039 
	C694.922241,432.632538 706.041748,420.059784 717.012085,407.358368 
	C719.472351,404.509857 721.639465,401.090942 718.820496,397.495453 
	C715.897217,393.766937 711.987183,394.643372 708.497131,396.864838 
	C702.054016,400.965912 695.441406,404.882446 689.421021,409.548889 
	C677.106262,419.094116 665.136902,429.084991 652.718018,439.038910 
	C650.597412,440.646637 648.687927,442.004333 646.986084,443.585510 
	C634.299561,455.372620 621.569519,467.115570 609.060181,479.088684 
	C606.210815,481.815857 604.406494,481.785004 601.687500,479.087250 
	C597.318665,474.752625 592.862854,470.417572 587.952454,466.738647 
	C581.459717,461.874298 574.845215,456.939026 567.634766,453.329193 
	C559.808472,449.411041 552.653381,451.064514 548.858887,455.916260 
	C544.811523,461.091278 545.792908,466.395325 551.409058,474.467194 
	C561.294373,488.674988 570.886414,503.086823 580.429321,517.580933 
	C580.257385,517.748596 579.913513,518.083801 579.913513,518.083801 
z"/>
<path fill="#E5F1ED" opacity="1.000000" stroke="none" 
	d="
M350.911987,704.087402 
	C347.632935,700.182800 343.752686,696.633179 341.195160,692.302429 
	C335.166504,682.093811 331.677277,671.127380 330.077209,659.110779 
	C327.371155,638.787842 333.946960,621.402527 345.311951,605.784241 
	C353.792664,594.129578 366.286407,586.306213 377.994049,577.914307 
	C390.673645,568.825684 403.022308,559.276062 415.540405,549.961182 
	C424.967346,542.946472 434.452637,536.010071 443.866638,528.978149 
	C445.706940,527.603516 447.150940,525.621521 449.109985,524.500244 
	C452.267609,522.693054 451.281708,520.934692 449.507141,519.050720 
	C448.086761,517.542786 446.506226,516.185669 444.996338,514.381470 
	C444.995941,514.001282 445.032104,513.960999 445.386414,513.897705 
	C449.205017,516.221558 452.669312,518.608582 456.105530,521.344666 
	C455.026520,522.722717 454.075500,523.884827 452.909607,524.760925 
	C434.682465,538.457458 416.434906,552.126770 398.176422,565.781494 
	C385.796997,575.039429 373.393280,584.264893 360.682831,593.672363 
	C340.570770,610.166931 330.666229,631.037659 332.123566,656.790833 
	C333.125885,674.502625 340.293304,689.833130 351.517273,703.467041 
	C351.181091,703.811768 351.046570,703.949585 350.911987,704.087402 
z"/>
<path fill="#E5F1ED" opacity="1.000000" stroke="none" 
	d="
M449.870331,706.884521 
	C447.392792,710.127197 444.765350,713.234314 441.969818,716.182007 
	C437.695953,720.688477 433.590088,725.415955 428.894196,729.445007 
	C422.920807,734.570190 415.721863,733.170227 408.744629,731.923279 
	C403.481110,730.982605 398.203766,730.098511 392.977997,728.977295 
	C390.680267,728.484375 388.495514,727.464783 386.200897,726.229614 
	C386.142334,725.774963 386.268005,725.573303 386.655945,725.632935 
	C397.810730,727.193604 408.567963,728.769104 419.349487,730.155884 
	C423.210205,730.652588 426.226685,728.969727 428.986542,726.130493 
	C435.568909,719.358948 442.440033,712.868103 449.194519,706.263855 
	C449.344696,706.401672 449.494904,706.539551 449.870331,706.884521 
z"/>
<path fill="#E5F1ED" opacity="1.000000" stroke="none" 
	d="
M394.918274,477.082672 
	C390.555969,474.189148 386.037384,471.503082 381.863495,468.359406 
	C372.837311,461.561035 363.723938,454.833649 355.181793,447.457031 
	C351.148468,443.974091 348.348663,439.062683 344.950043,434.440582 
	C344.910126,434.082642 345.290527,433.767059 345.666382,433.837097 
	C347.013031,434.935577 347.983826,435.964081 349.084106,437.307465 
	C353.987640,442.427307 358.383331,447.699219 363.615601,451.938629 
	C374.032288,460.378693 384.908936,468.251038 395.426300,476.539124 
	C395.257019,476.720367 394.918274,477.082672 394.918274,477.082672 
z"/>
<path fill="#F1E9DC" opacity="1.000000" stroke="none" 
	d="
M633.925720,513.937195 
	C633.019958,516.186218 632.217590,518.480042 630.878967,520.399963 
	C626.893982,526.115356 623.698242,532.399780 617.354858,536.283447 
	C608.548828,541.674744 599.537964,541.355957 592.185791,534.263184 
	C592.177429,533.810059 592.410400,533.561890 592.757202,533.653503 
	C604.550903,540.761230 615.003296,538.881470 623.165344,528.144165 
	C626.769104,523.403320 630.064697,518.428040 633.500183,513.559143 
	C633.500183,513.559143 633.783936,513.811096 633.925720,513.937195 
z"/>
<path fill="#E5F1ED" opacity="1.000000" stroke="none" 
	d="
M386.079590,725.875854 
	C383.053802,725.189392 379.834717,724.893799 377.181274,723.512024 
	C371.744537,720.680786 366.567139,717.336243 361.384735,714.042786 
	C360.118561,713.238159 359.245911,711.814209 358.100861,710.332275 
	C358.009369,709.989624 358.020630,709.976990 358.372009,709.908875 
	C362.799774,712.464600 366.876160,715.088501 371.246704,717.914612 
	C376.449860,720.602356 381.358948,723.087830 386.268005,725.573242 
	C386.268005,725.573303 386.142334,725.774963 386.079590,725.875854 
z"/>
<path fill="#E5F1ED" opacity="1.000000" stroke="none" 
	d="
M417.957062,494.042755 
	C412.508545,490.407166 407.017761,486.832642 401.631195,483.107513 
	C399.307068,481.500275 397.198364,479.581573 394.955017,477.443512 
	C394.918274,477.082672 395.257019,476.720367 395.703827,476.730560 
	C398.700409,478.548248 401.343811,480.238678 403.780090,482.188049 
	C408.590729,486.037323 413.286713,490.029999 418.011902,493.983276 
	C417.993683,494.003143 417.957062,494.042755 417.957062,494.042755 
z"/>
<path fill="#F1E9DC" opacity="1.000000" stroke="none" 
	d="
M592.060791,533.934021 
	C585.681885,530.773438 582.337952,525.190491 579.938110,518.464233 
	C579.913513,518.083801 580.257385,517.748596 580.655884,517.825378 
	C584.839722,523.122070 588.625061,528.341980 592.410400,533.561890 
	C592.410400,533.561890 592.177429,533.810059 592.060791,533.934021 
z"/>
<path fill="#E5F1ED" opacity="1.000000" stroke="none" 
	d="
M433.944580,506.063843 
	C428.628571,502.298340 423.312592,498.532837 417.976807,494.405029 
	C417.957062,494.042755 417.993683,494.003143 418.368134,493.915894 
	C423.977478,497.712830 429.212341,501.597015 434.321594,505.626831 
	C434.195953,505.772522 433.944580,506.063843 433.944580,506.063843 
z"/>
<path fill="#F1E9DC" opacity="1.000000" stroke="none" 
	d="
M572.955811,598.337891 
	C576.611328,600.700562 580.291992,603.425781 584.069214,606.469727 
	C580.437500,604.092468 576.709229,601.396484 572.955811,598.337891 
z"/>
<path fill="#E5F1ED" opacity="1.000000" stroke="none" 
	d="
M444.977722,514.021301 
	C441.369537,511.593872 437.779541,509.146423 434.067078,506.381409 
	C433.944580,506.063843 434.195953,505.772522 434.619629,505.773376 
	C438.372925,508.503113 441.702515,511.232056 445.032104,513.960999 
	C445.032104,513.960999 444.995941,514.001282 444.977722,514.021301 
z"/>
<path fill="#E5F1ED" opacity="1.000000" stroke="none" 
	d="
M354.917419,708.091614 
	C353.605682,706.987732 352.293945,705.883850 350.947144,704.433716 
	C351.046570,703.949585 351.181091,703.811768 351.767212,703.657043 
	C353.372040,704.851868 354.525269,706.063599 355.488159,707.479370 
	C355.171051,707.819458 355.044220,707.955566 354.917419,708.091614 
z"/>
<path fill="#E5F1ED" opacity="1.000000" stroke="none" 
	d="
M358.004211,709.995239 
	C357.058258,709.565552 356.117523,709.130127 355.047089,708.393188 
	C355.044220,707.955566 355.171051,707.819458 355.757080,707.649841 
	C356.817719,708.403198 357.419189,709.190063 358.020630,709.976990 
	C358.020630,709.976990 358.009369,709.989624 358.004211,709.995239 
z"/>
<path fill="#F56D26" opacity="1.000000" stroke="none" 
	d="
M671.148682,606.998291 
	C685.036194,645.748596 672.024414,690.790894 636.356567,714.972900 
	C620.806213,725.515808 603.769226,730.321960 585.113708,730.279663 
	C544.492004,730.187561 503.869965,730.234497 463.248108,730.192322 
	C461.691650,730.190735 460.135559,729.855408 457.038452,729.497498 
	C463.153595,723.291382 468.213226,718.095703 473.338776,712.965942 
	C489.455109,696.836304 505.516876,680.650085 521.830078,664.721680 
	C523.826111,662.772766 527.205322,661.283020 529.971680,661.235840 
	C547.949158,660.929077 565.934875,661.143860 583.916809,661.024048 
	C587.201660,661.002197 590.481567,660.228394 594.145630,659.711182 
	C600.586731,659.656616 606.793152,660.560974 612.677124,659.563477 
	C629.421204,656.724915 644.439575,650.134155 656.273682,637.308228 
	C662.864136,630.165466 665.592773,621.341980 668.369019,612.432800 
	C668.938110,610.606262 669.980042,608.927002 671.148682,606.998291 
z"/>
<path fill="#F47D26" opacity="1.000000" stroke="none" 
	d="
M561.960999,587.229126 
	C558.411926,585.090332 554.759460,582.785339 551.615356,579.922119 
	C550.682495,579.072632 550.417419,576.166260 551.142639,575.028931 
	C556.983826,565.868713 563.134949,556.906189 569.417908,547.545715 
	C571.464722,549.268799 574.362427,551.865479 577.420898,554.256592 
	C593.119446,566.529602 609.906372,568.745911 627.523193,558.865295 
	C631.905090,556.407654 635.045837,556.328064 638.401367,560.487183 
	C636.706787,561.799866 634.623962,562.566223 632.923706,563.842224 
	C615.322449,577.051697 596.874451,577.528625 577.903015,567.321472 
	C574.116760,565.284363 572.695862,565.783264 570.997192,569.671936 
	C568.419128,575.574097 565.072327,581.140442 561.960999,587.229126 
z"/>
<path fill="#70E3DC" opacity="1.000000" stroke="none" 
	d="
M348.954620,436.992584 
	C347.983826,435.964081 347.013031,434.935577 345.856628,433.679352 
	C339.620117,422.816528 334.803528,411.729156 332.977783,399.504486 
	C330.348938,381.902527 332.398956,365.005432 340.364655,348.957794 
	C353.188446,323.123169 373.856171,307.061768 402.010895,301.712189 
	C413.002686,299.623627 424.566162,300.199615 435.871185,300.163513 
	C484.508270,300.008026 533.146118,300.050385 581.783569,300.111267 
	C585.672974,300.116119 587.123657,298.668488 587.005859,294.799622 
	C586.813232,288.475983 586.982056,282.141357 586.997009,275.811371 
	C587.014404,268.426239 590.012878,262.915283 597.108337,260.156006 
	C603.713257,257.587555 609.313843,259.824951 613.883911,264.573303 
	C630.741638,282.088593 647.740967,299.481934 664.120789,317.437714 
	C675.074524,329.445374 674.428711,342.045074 663.160767,353.890045 
	C647.094971,370.778473 630.862061,387.508575 614.622192,404.230194 
	C609.537720,409.465454 603.661987,412.323090 596.193176,409.217041 
	C588.923767,406.193878 586.932800,400.164978 586.863403,393.063232 
	C586.801575,386.734558 586.601196,380.385284 587.011475,374.080872 
	C587.337891,369.064270 585.300232,367.917908 580.660706,367.932312 
	C532.020386,368.082886 483.379395,368.014313 434.738831,368.121948 
	C427.941956,368.137024 421.146423,368.774597 413.509460,369.102844 
	C407.277222,370.101471 401.786896,370.760010 396.511749,372.204346 
	C375.070343,378.074890 358.129028,389.672424 351.427155,411.863953 
	C349.040070,419.768158 349.690643,428.589752 348.954620,436.992584 
z"/>
<path fill="#41BEC5" opacity="1.000000" stroke="none" 
	d="
M349.084106,437.307465 
	C349.690643,428.589752 349.040070,419.768158 351.427155,411.863953 
	C358.129028,389.672424 375.070343,378.074890 396.511749,372.204346 
	C401.786896,370.760010 407.277222,370.101471 413.125183,369.048706 
	C400.731842,376.827728 398.858795,390.136139 410.309387,399.766022 
	C423.410950,410.784393 437.458344,420.678497 451.100433,431.053650 
	C459.951660,437.785217 468.813080,444.503418 477.879700,451.881409 
	C478.668030,454.249390 479.054871,456.059143 479.854736,457.662964 
	C488.340271,474.678131 486.966919,490.818390 474.902527,505.507355 
	C470.224701,511.202881 464.329773,515.898804 458.631592,521.056946 
	C457.560486,521.041077 456.847015,521.018372 456.133575,520.995667 
	C452.669312,518.608582 449.205017,516.221558 445.386414,513.897705 
	C441.702515,511.232056 438.372925,508.503113 434.745300,505.627686 
	C429.212341,501.597015 423.977478,497.712830 418.386353,493.896027 
	C413.286713,490.029999 408.590729,486.037323 403.780090,482.188049 
	C401.343811,480.238678 398.700409,478.548248 395.873108,476.549316 
	C384.908936,468.251038 374.032288,460.378693 363.615601,451.938629 
	C358.383331,447.699219 353.987640,442.427307 349.084106,437.307465 
z"/>
<path fill="#279EB4" opacity="1.000000" stroke="none" 
	d="
M456.105530,521.344666 
	C456.847015,521.018372 457.560486,521.041077 458.732971,521.377319 
	C463.348877,524.614685 467.328491,527.839539 471.693390,530.410217 
	C490.238525,541.332397 509.533600,547.404846 530.897888,538.744385 
	C531.779968,538.386780 533.059509,539.009644 534.153870,539.175659 
	C531.738098,547.285583 526.853027,553.762390 520.199097,558.716675 
	C483.265930,586.215515 446.233154,613.580566 409.219696,640.971497 
	C408.171875,641.746826 406.958618,642.298584 405.283142,642.930908 
	C404.189606,642.641052 403.635376,642.374939 402.804962,641.896118 
	C399.795258,638.730591 397.061768,635.777893 395.353790,633.932983 
	C391.362488,633.263000 388.236908,633.291992 385.589996,632.180786 
	C379.755066,629.731201 374.042145,626.916565 368.542206,623.788818 
	C366.890320,622.849426 364.702179,619.400879 365.143463,618.770508 
	C369.252869,612.900391 364.996246,612.344727 360.931488,611.029480 
	C355.945923,609.416321 354.729858,606.363708 357.964905,603.004028 
	C360.735382,600.126831 361.200470,597.054260 361.000427,593.504883 
	C373.393280,584.264893 385.796997,575.039429 398.176422,565.781494 
	C416.434906,552.126770 434.682465,538.457458 452.909607,524.760925 
	C454.075500,523.884827 455.026520,522.722717 456.105530,521.344666 
z"/>
<path fill="#157C98" opacity="1.000000" stroke="none" 
	d="
M386.655945,725.632935 
	C381.358948,723.087830 376.449860,720.602356 371.219818,717.552856 
	C367.940277,708.781372 365.703613,700.503784 367.568329,691.636047 
	C371.015839,675.241333 380.195618,662.514893 392.938599,652.162048 
	C395.962738,649.705200 399.609039,648.014099 402.998596,645.997070 
	C403.027985,646.023376 403.087097,646.075623 403.087097,646.075623 
	C402.380157,658.051270 408.206299,661.191101 418.881897,661.098572 
	C440.837952,660.908203 462.796722,661.026917 484.754364,661.018616 
	C487.020081,661.017761 489.285767,661.018433 491.551483,661.018433 
	C491.869232,661.546326 492.186951,662.074219 492.504700,662.602112 
	C478.192963,676.972351 463.881195,691.342590 449.381989,705.988342 
	C442.440033,712.868103 435.568909,719.358948 428.986542,726.130493 
	C426.226685,728.969727 423.210205,730.652588 419.349487,730.155884 
	C408.567963,728.769104 397.810730,727.193604 386.655945,725.632935 
z"/>
<path fill="#33B0BE" opacity="1.000000" stroke="none" 
	d="
M534.404419,538.887207 
	C533.059509,539.009644 531.779968,538.386780 530.897888,538.744385 
	C509.533600,547.404846 490.238525,541.332397 471.693390,530.410217 
	C467.328491,527.839539 463.348877,524.614685 459.090637,521.370483 
	C464.329773,515.898804 470.224701,511.202881 474.902527,505.507355 
	C486.966919,490.818390 488.340271,474.678131 479.854736,457.662964 
	C479.054871,456.059143 478.668030,454.249390 478.076965,452.144104 
	C492.926758,462.986816 508.765259,473.162537 522.392334,485.735138 
	C537.763733,499.917023 540.797302,518.592896 534.404419,538.887207 
z"/>
<path fill="#157C98" opacity="1.000000" stroke="none" 
	d="
M403.081177,642.108887 
	C403.635376,642.374939 404.189606,642.641052 404.984283,643.102905 
	C404.706665,644.142700 404.188568,644.986816 403.378784,645.953247 
	C403.087097,646.075623 403.027985,646.023376 403.006439,645.609375 
	C403.016998,644.166565 403.049072,643.137695 403.081177,642.108887 
z"/>
<path fill="#F47D26" opacity="1.000000" stroke="none" 
	d="
M592.757202,533.653503 
	C588.625061,528.341980 584.839722,523.122070 580.827759,517.657715 
	C570.886414,503.086823 561.294373,488.674988 551.409058,474.467194 
	C545.792908,466.395325 544.811523,461.091278 548.858887,455.916260 
	C552.653381,451.064514 559.808472,449.411041 567.634766,453.329193 
	C574.845215,456.939026 581.459717,461.874298 587.952454,466.738647 
	C592.862854,470.417572 597.318665,474.752625 601.687500,479.087250 
	C604.406494,481.785004 606.210815,481.815857 609.060181,479.088684 
	C621.569519,467.115570 634.299561,455.372620 646.986084,443.585510 
	C648.687927,442.004333 650.597412,440.646637 652.694336,439.430786 
	C656.055725,449.051605 661.698303,456.647186 669.153381,462.985016 
	C658.105103,478.350220 647.051208,493.711426 636.019104,509.088226 
	C635.151978,510.296753 634.436401,511.614044 633.575317,513.219971 
	C630.064697,518.428040 626.769104,523.403320 623.165344,528.144165 
	C615.003296,538.881470 604.550903,540.761230 592.757202,533.653503 
z"/>
<path fill="#F8A83E" opacity="1.000000" stroke="none" 
	d="
M669.439575,462.831268 
	C661.698303,456.647186 656.055725,449.051605 653.001587,439.284241 
	C665.136902,429.084991 677.106262,419.094116 689.421021,409.548889 
	C695.441406,404.882446 702.054016,400.965912 708.497131,396.864838 
	C711.987183,394.643372 715.897217,393.766937 718.820496,397.495453 
	C721.639465,401.090942 719.472351,404.509857 717.012085,407.358368 
	C706.041748,420.059784 694.922241,432.632538 683.966064,445.346039 
	C679.086243,451.008575 674.464539,456.893524 669.439575,462.831268 
z"/>
<path fill="#239AB1" opacity="1.000000" stroke="none" 
	d="
M402.804932,641.896118 
	C403.049072,643.137695 403.016998,644.166565 402.977051,645.583069 
	C399.609039,648.014099 395.962738,649.705200 392.938599,652.162048 
	C380.195618,662.514893 371.015839,675.241333 367.568329,691.636047 
	C365.703613,700.503784 367.940277,708.781372 370.925720,717.350586 
	C366.876160,715.088501 362.799774,712.464600 358.372009,709.908875 
	C357.419189,709.190063 356.817719,708.403198 355.947388,707.445801 
	C354.525269,706.063599 353.372040,704.851868 351.968872,703.450195 
	C340.293304,689.833130 333.125885,674.502625 332.123566,656.790833 
	C330.666229,631.037659 340.570770,610.166931 360.682861,593.672363 
	C361.200470,597.054260 360.735382,600.126831 357.964905,603.004028 
	C354.729858,606.363708 355.945923,609.416321 360.931488,611.029480 
	C364.996246,612.344727 369.252869,612.900391 365.143463,618.770508 
	C364.702179,619.400879 366.890320,622.849426 368.542206,623.788818 
	C374.042145,626.916565 379.755066,629.731201 385.589996,632.180786 
	C388.236908,633.291992 391.362488,633.263000 395.353790,633.932983 
	C397.061768,635.777893 399.795258,638.730591 402.804932,641.896118 
z"/>
</svg>